<?xml version="1.0" encoding="UTF-8" standalone="no"?>
<!DOCTYPE svg PUBLIC "-//W3C//DTD SVG 1.1//EN" "http://www.w3.org/Graphics/SVG/1.1/DTD/svg11.dtd">
<svg width="100%" height="100%" viewBox="0 0 1070 263" version="1.1" xmlns="http://www.w3.org/2000/svg" xmlns:xlink="http://www.w3.org/1999/xlink" xml:space="preserve" xmlns:serif="http://www.serif.com/" style="fill-rule:evenodd;clip-rule:evenodd;stroke-linejoin:round;stroke-miterlimit:2;">
    <g transform="matrix(1.51541,0,0,1.51541,-1445.83,-236.515)">
        <g transform="matrix(1.55362,0,0,1.04498,285.877,-424.496)">
            <path d="M557.521,678.716L557.521,716.605C557.521,719.218 556.093,721.341 554.335,721.341L528.851,721.341C527.093,721.341 525.665,719.218 525.665,716.605L525.665,678.716C525.665,676.102 527.093,673.98 528.851,673.98L554.335,673.98C556.093,673.98 557.521,676.102 557.521,678.716Z" style="fill:rgb(234,88,12);"/>
        </g>
        <g transform="matrix(1.55362,0,0,1.04498,211.64,-424.496)">
            <path d="M557.521,678.716L557.521,716.605C557.521,719.218 556.093,721.341 554.335,721.341L528.851,721.341C527.093,721.341 525.665,719.218 525.665,716.605L525.665,678.716C525.665,676.102 527.093,673.98 528.851,673.98L554.335,673.98C556.093,673.98 557.521,676.102 557.521,678.716Z" style="fill:rgb(34,197,94);"/>
        </g>
        <g transform="matrix(1.55362,0,0,1.04498,137.403,-424.496)">
            <path d="M557.521,678.716L557.521,716.605C557.521,719.218 556.093,721.341 554.335,721.341L528.851,721.341C527.093,721.341 525.665,719.218 525.665,716.605L525.665,678.716C525.665,676.102 527.093,673.98 528.851,673.98L554.335,673.98C556.093,673.98 557.521,676.102 557.521,678.716Z" style="fill:rgb(21,94,117);"/>
        </g>
    </g>
    <g transform="matrix(1.00169,0,0,1.00134,-584.182,-511.066)">
        <g transform="matrix(200,0,0,200,1660.6,657.784)">
        </g>
        <text x="567.199px" y="657.784px" style="font-family:'Aller-Regular', 'Aller', sans-serif;font-size:200px;fill:rgb(15,23,42);">mar<tspan x="912.799px 1005.4px 1116.6px " y="657.784px 657.784px 657.784px ">cel</tspan>kr<tspan x="1351.4px 1454.8px " y="657.784px 657.784px ">au</tspan>s</text>
    </g>
</svg>
